<?xml version="1.0" encoding="utf-8"?>
<!-- Generator: Adobe Illustrator 25.2.1, SVG Export Plug-In . SVG Version: 6.00 Build 0)  -->
<svg version="1.1" id="Layer_1" xmlns="http://www.w3.org/2000/svg" xmlns:xlink="http://www.w3.org/1999/xlink" x="0px" y="0px"
	 viewBox="0 0 600 600" style="enable-background:new 0 0 600 600;" xml:space="preserve">
<style type="text/css">
	.st0{fill:#FFFFFF;}
</style>
<g>
	<g>
		<g>
			<path class="st0" d="M198.2,213.9l-84.2,198.6h65c8.3,0,17.5-5.5,20.4-12.5l39.9-93.8l0.1-0.9L198.2,213.9z"/>
		</g>
		<g>
			<path class="st0" d="M421.1,187.5c-8.3,0-17.4,5.6-20.4,12.5l-35.6,83.9l41.4,90.9l79.5-187.3H421.1z"/>
		</g>
		<path class="st0" d="M297.9,191.9c-1.7-2.9-5.3-4.5-9.7-4.5h-76.8l25.4,56.7h84.8L297.9,191.9z"/>
		<path class="st0" d="M332.2,267.2h-85.2l63.6,140.8l0.1,0.1c1.6,2.8,5.2,4.4,9.7,4.4h55c5.7,0,12-2.7,16.2-6.7
			c1.6-1.5,2-3.9,1.1-6L332.2,267.2z"/>
	</g>
</g>
</svg>
